<svg width="42" height="42" viewBox="0 0 62 63" fill="none" xmlns="http://www.w3.org/2000/svg">
<path d="M35.3132 18.9714L22.5798 6.23804C20.3464 4.00469 17.3174 2.75 14.1589 2.75C11.0005 2.75 7.9714 4.00469 5.73804 6.23804C3.50469 8.4714 2.25 11.5005 2.25 14.6589C2.25 17.8174 3.50469 20.8464 5.73804 23.0798L39.4244 56.7633C41.6578 58.9967 44.6869 60.2513 47.8453 60.2513C49.4092 60.2513 50.9578 59.9433 52.4026 59.3448C53.8475 58.7464 55.1603 57.8691 56.2662 56.7633C57.372 55.6575 58.2492 54.3446 58.8477 52.8998C59.4462 51.4549 59.7542 49.9063 59.7542 48.3424C59.7542 46.7785 59.4462 45.2299 58.8477 43.7851C58.2492 42.3402 57.372 41.0274 56.2662 39.9216L43.7369 27.3923" stroke="#3FC3D7" stroke-width="4" stroke-linecap="round"/>
<path d="M30.9957 48.3424L22.5748 56.7633C21.2973 58.0413 19.7458 59.0118 18.0377 59.6013C16.3296 60.1908 14.5097 60.3838 12.7159 60.1658C10.9222 59.9478 9.20154 59.3244 7.68438 58.3429C6.16722 57.3614 4.89332 56.0474 3.95919 54.5007M14.1539 31.5007L5.73306 39.9215C4.80731 40.8473 4.06556 41.8909 3.50781 43.0007M30.9957 14.6589L39.4166 6.23804C40.5224 5.1322 41.8352 4.25499 43.2801 3.65651C44.7249 3.05803 46.2735 2.75 47.8374 2.75C49.4013 2.75 50.9499 3.05803 52.3948 3.65651C53.8396 4.25499 55.1525 5.1322 56.2583 6.23804C57.3642 7.34389 58.2414 8.65672 58.8398 10.1016C59.4383 11.5464 59.7463 13.095 59.7463 14.6589C59.7463 16.2228 59.4383 17.7714 58.8398 19.2163C58.2414 20.6611 57.3642 21.9739 56.2583 23.0798L47.8346 31.5007" stroke="#3FC3D7" stroke-width="4" stroke-linecap="round"/>
<path d="M42.0465 34.0064C42.2662 34.2145 42.4419 34.4646 42.5633 34.7418C42.6847 35.019 42.7493 35.3177 42.7534 35.6203C42.7575 35.9229 42.7009 36.2232 42.5869 36.5036C42.473 36.7839 42.304 37.0386 42.0901 37.2526C41.8761 37.4666 41.6214 37.6355 41.341 37.7495C41.0607 37.8634 40.7603 37.92 40.4577 37.916C40.1552 37.9119 39.8564 37.8473 39.5792 37.7259C39.302 37.6045 39.052 37.4288 38.8438 37.2091C38.4377 36.7806 38.2149 36.2106 38.2228 35.6203C38.2307 35.03 38.4687 34.4661 38.8862 34.0487C39.3036 33.6313 39.8675 33.3933 40.4577 33.3854C41.048 33.3775 41.6181 33.6003 42.0465 34.0064ZM31.3745 23.3344C31.1643 23.1241 30.9146 22.9572 30.6398 22.8434C30.3651 22.7296 30.0706 22.671 29.7732 22.671C29.4758 22.671 29.1813 22.7296 28.9065 22.8434C28.6318 22.9572 28.3821 23.1241 28.1718 23.3344C27.9615 23.5447 27.7947 23.7943 27.6809 24.0691C27.5671 24.3438 27.5085 24.6383 27.5085 24.9357C27.5085 25.2331 27.5671 25.5276 27.6809 25.8024C27.7947 26.0772 27.9615 26.3268 28.1718 26.5371C28.5965 26.9618 29.1725 27.2004 29.7732 27.2004C30.3738 27.2004 30.9498 26.9618 31.3745 26.5371C31.7993 26.1124 32.0379 25.5364 32.0379 24.9357C32.0379 24.3351 31.7993 23.7591 31.3745 23.3344ZM44.7174 42.0132C44.9277 42.2235 45.0945 42.4732 45.2083 42.748C45.3222 43.0227 45.3807 43.3172 45.3807 43.6146C45.3807 43.912 45.3222 44.2065 45.2083 44.4813C45.0945 44.756 44.9277 45.0057 44.7174 45.216C44.5071 45.4263 44.2575 45.5931 43.9827 45.7069C43.7079 45.8207 43.4135 45.8793 43.116 45.8793C42.8186 45.8793 42.5242 45.8207 42.2494 45.7069C41.9746 45.5931 41.725 45.4263 41.5147 45.216C41.09 44.7913 40.8514 44.2152 40.8514 43.6146C40.8514 43.014 41.09 42.4379 41.5147 42.0132C41.9394 41.5885 42.5154 41.3499 43.116 41.3499C43.7167 41.3499 44.2927 41.5885 44.7174 42.0132ZM23.3705 20.6635C23.1599 20.453 22.9098 20.2861 22.6346 20.1722C22.3594 20.0584 22.0645 19.9999 21.7667 20C21.4689 20.0001 21.1741 20.0589 20.899 20.173C20.6239 20.2871 20.374 20.4543 20.1635 20.6649C19.953 20.8756 19.7861 21.1257 19.6722 21.4008C19.5584 21.676 19.4999 21.971 19.5 22.2688C19.5001 22.5666 19.5589 22.8614 19.673 23.1365C19.7871 23.4116 19.9542 23.6615 20.1649 23.872C20.5904 24.2971 21.1673 24.5357 21.7688 24.5355C22.3702 24.5352 22.9469 24.296 23.372 23.8705C23.7971 23.4451 24.0357 22.8682 24.0355 22.2667C24.0352 21.6653 23.796 21.0886 23.3705 20.6635ZM34.0425 31.3384C34.4673 31.7627 34.706 32.3384 34.7063 32.9387C34.7066 33.5391 34.4683 34.115 34.044 34.5397C33.6197 34.9644 33.044 35.2031 32.4436 35.2034C31.8433 35.2037 31.2674 34.9654 30.8427 34.5411C30.418 34.1168 30.1792 33.5411 30.1789 32.9408C30.1787 32.3404 30.4169 31.7645 30.8412 31.3398C31.2656 30.9151 31.8412 30.6763 32.4416 30.6761C33.042 30.6758 33.6178 30.914 34.0425 31.3384ZM36.7105 39.3452C36.9347 39.5523 37.1148 39.8025 37.2399 40.0808C37.365 40.3592 37.4326 40.66 37.4386 40.9651C37.4446 41.2702 37.3889 41.5734 37.2748 41.8564C37.1607 42.1395 36.9906 42.3966 36.7747 42.6122C36.5589 42.8279 36.3016 42.9978 36.0185 43.1116C35.7353 43.2254 35.4321 43.2809 35.127 43.2746C34.8219 43.2683 34.5212 43.2005 34.2429 43.0751C33.9647 42.9498 33.7146 42.7695 33.5078 42.5451C33.1112 42.1149 32.8965 41.548 32.9085 40.963C32.9205 40.3781 33.1584 39.8204 33.5723 39.4069C33.9862 38.9934 34.544 38.756 35.129 38.7445C35.714 38.733 36.2807 38.9483 36.7105 39.3452ZM26.0385 28.6704C25.8283 28.4601 25.5786 28.2932 25.3038 28.1794C25.0291 28.0656 24.7346 28.007 24.4372 28.007C24.1398 28.007 23.8453 28.0656 23.5705 28.1794C23.2958 28.2932 23.0461 28.4601 22.8358 28.6704C22.6255 28.8807 22.4587 29.1303 22.3449 29.4051C22.2311 29.6798 22.1725 29.9743 22.1725 30.2717C22.1725 30.5691 22.2311 30.8636 22.3449 31.1384C22.4587 31.4132 22.6255 31.6628 22.8358 31.8731C23.2605 32.2978 23.8365 32.5364 24.4372 32.5364C25.0378 32.5364 25.6138 32.2978 26.0385 31.8731C26.4633 31.4484 26.7019 30.8724 26.7019 30.2717C26.7019 29.6711 26.4633 29.0951 26.0385 28.6704Z" fill="#3FC3D7"/>
</svg>
