<svg width="81" height="81" viewBox="0 0 81 81" fill="none" xmlns="http://www.w3.org/2000/svg">
<path fill-rule="evenodd" clip-rule="evenodd" d="M31.2525 10.4587C32.616 7.04662 37.1081 4.93724 40.5911 7.58999C46.3961 12.0112 53.676 18.5115 59.535 25.95C65.34 33.3176 70.0312 41.9677 70.0312 50.6246C70.0312 58.3635 67.635 64.1145 64.1655 68.2354C60.7264 72.3157 56.3591 74.6512 52.5892 75.8291C51.7435 76.1066 50.8283 76.0857 49.9961 75.77C49.1639 75.4543 48.4651 74.8629 48.0161 74.0944C47.2061 72.7342 47.2027 70.9219 48.2186 69.4672C51.111 65.3092 54.1687 59.3287 54.1687 53.9996C54.1687 51.3536 53.028 48.225 51.1886 45.012C49.8036 42.643 48.2195 40.3961 46.4535 38.2957C46.1126 43.0275 45.0832 48.9776 41.8905 53.8984C41.5537 54.427 41.095 54.8671 40.5531 55.1819C40.0111 55.4968 39.4015 55.6771 38.7755 55.7078C38.1495 55.7386 37.5252 55.6188 36.955 55.3586C36.3848 55.0984 35.8852 54.7053 35.4982 54.2122C34.9616 53.5339 34.4317 52.788 33.9457 52.1062L33.8614 51.9847C33.5947 51.6135 33.345 51.2591 33.102 50.9284C30.7867 53.2335 28.6301 55.9909 28.6301 59.0621C28.6301 61.7756 29.9835 65.4814 31.5866 68.6269C32.454 70.3245 32.0929 72.2077 31.0466 73.443C29.9396 74.7525 27.9214 75.4275 26.0077 74.3205C19.4467 70.5202 10.9688 62.4034 10.9688 50.6246C10.9688 47.4285 12.0521 44.1244 13.5675 40.8945C15.0964 37.6444 17.1653 34.2559 19.3387 30.8707C20.0914 29.6996 20.8575 28.5285 21.6169 27.3607C25.3463 21.6469 29.0419 15.9836 31.2525 10.4587ZM36.7807 11.532C36.5942 11.6003 36.4242 11.7071 36.2817 11.8455C36.1393 11.9839 36.0276 12.1508 35.9539 12.3352C33.5374 18.3765 29.4975 24.5595 25.7681 30.2666C25.0256 31.4006 24.3 32.5177 23.598 33.6079C21.438 36.966 19.5244 40.1182 18.1507 43.0444C16.767 45.9941 16.0312 48.5119 16.0312 50.6246C16.0312 58.3669 20.7799 64.3811 25.7614 68.1004C24.5632 65.2654 23.5676 61.9882 23.5676 59.0621C23.5676 53.2234 27.9551 48.8122 30.4054 46.4902C31.9916 44.9884 34.7321 44.8534 36.3319 46.8244C36.9056 47.5365 37.4726 48.3296 37.9856 49.0519L38.0464 49.1362L38.4682 49.7269C40.7295 45.4271 41.3572 40.1824 41.5159 35.8624C41.5834 34.0871 42.6836 32.6797 44.1281 32.0925C44.9056 31.7731 45.7632 31.7035 46.5821 31.8934C47.4009 32.0833 48.1403 32.5232 48.6979 33.1522C50.949 35.6396 53.5376 38.9302 55.5795 42.4942C57.5978 46.0144 59.2312 50.061 59.2312 53.9996C59.2312 59.7135 56.6393 65.5084 54.0203 69.825C56.4247 68.6615 58.5603 67.0098 60.291 64.9751C62.9471 61.8229 64.9688 57.2464 64.9688 50.6246C64.9688 43.6822 61.1314 36.156 55.5559 29.082C50.0378 22.0721 43.0988 15.8621 37.5233 11.6164C37.341 11.478 37.1014 11.424 36.7807 11.532Z" fill="#3FC3D7"/>
</svg>
